<svg xmlns="http://www.w3.org/2000/svg" width="48" height="48" fill="none"><circle cx="24" cy="24" r="24" fill="#4F46E5" opacity="0.12"/><path d="M24 14c-5.523 0-10 4.477-10 10 0 3.518 1.85 6.61 4.636 8.382l.632-2.342A7.001 7.001 0 0 1 24 17a7 7 0 0 1 5.248 11.648l-.638 2.366A9.995 9.995 0 0 0 34 24c0-5.523-4.477-10-10-10Zm0 6a4 4 0 0 0-4 4 1 1 0 0 0 2 0 2 2 0 0 1 2-2 1 1 0 0 0 0-2Zm-5.707 9.293-1.586 5.88a1 1 0 0 0 1.225 1.225l5.88-1.586 4.828-4.828a1 1 0 0 0-1.414-1.415l-4.121 4.121-4.121-4.121a1 1 0 0 0-1.414 0Z" fill="#4F46E5"/></svg>